<?xml version="1.0" standalone="no"?>
<?xml-stylesheet type="text/css" href="handson.css" ?>
<svg xmlns="http://www.w3.org/2000/svg" width="750" height="500" viewBox="0 0 750 500" xmlns:xlink="http://www.w3.org/1999/xlink" >

<defs>
  <g id="wheel">
    <circle cx="0" cy="0" r="40" fill="black" />
    <circle cx="0" cy="0" r="20" fill="grey" />
    <ellipse cx="30" cy="0" rx="2" ry="4" fill="white"/>
  </g>

  <g id="autoBody">
    <polyline points="200,400 200,300 300,300 300,200 625,200 625,400" fill="brown" />
    <ellipse cx="204" cy="335" rx="8" ry="20" fill="yellow"/>
    <ellipse cx="625" cy="370" rx="8" ry="20" fill="red"/>
    <rect x="325" y="225" width="100" height="75" fill="blue" />
    <rect x="475" y="225" width="100" height="75" fill="blue" />
  </g>

  <g id="antenna">
    <line x1="0" y1="0" x2="40" y2="-50" style="stroke:rgb(0,0,0);stroke-width:3" />
    <animateTransform attributeName="transform" type="rotate" values="0;8;0;0;0;14;0" dur="1s" repeatCount="indefinite"/>
  </g>

  <g id="rotatingWheels">
    <use xlink:href="#wheel" x="0" y="0"/>
    <animateTransform attributeName="transform"
      type="rotate"
      from="360"
      to="0"
      dur="1s"
      repeatCount="indefinite"/>
  </g>

  <g id="car">
    <use xlink:href="#autoBody" x="0" y="0"/>
    <use xlink:href="#wheel" x="300" y="400"/>
    <use xlink:href="#wheel" x="550" y="400"/>
  </g>

  <g id="carMovement">
    <use xlink:href="#autoBody" x="0" y="0"/>
    <use xlink:href="#rotatingWheels" x="300" y="400"/>
    <use xlink:href="#rotatingWheels" x="550" y="400"/>
    <use xlink:href="#antenna" x="320" y="200"/>
  </g>

</defs>

<use xlink:href="#carMovement" x="0" y="0"/>

</svg>
