<?xml version="1.0" standalone="no"?>
<?xml-stylesheet type="text/css" href="handson.css" ?>
<svg xmlns="http://www.w3.org/2000/svg" width="750" height="500" viewBox="0 0 750 500" xmlns:xlink="http://www.w3.org/1999/xlink" >

<defs>
<g id="body">
      <path d="M0 0l20 30.3 2 15-2 5 5 5.1 5 25.1-60.1-.5 9.6-50-5.5 25 5.1-5-1.9-5 2.3-15" fill="#6a5acd"/>
      <path d="M-20.9 50l40.9.3" stroke="#000" stroke-width="1"/>
      <path d="M-30.1 80l60.1.5v5l-5 5-50.2-.5-5-5" fill="sienna"/>
    </g>
    <g id="arm">
      <path d="M-20.5 30l-20.2 10-3 3-.3 13L-30 80l4-20-6.4-10 9.7-5" fill="purple"/>
      <path d="M-35.8 47.5l3.3 2.5" stroke="#000" stroke-width="1"/>
    </g>

    <circle cx="0" cy="0" id="circle" r="5"/>
    <circle cx="0" cy="0" fill="wheat" id="head" r="25"/>
    <circle cx="0" cy="0" id="eye" r="3"/>
    <path d="M0 0q10 10.2 20 .3" fill="none" id="mouth" stroke="#000" stroke-width="2"/>
    <g id="cap">
      <circle cx="20" cy="-25" fill="red" r="6"/>
      <path d="M0 0q22.3-40 45.5.8" fill="red"/>
      <path d="M7.2-10q15-30 31.3 0" fill="#00f"/>
    </g>
    <path d="M0 0l-30.3 20h25L10 .2" fill="maroon" id="ski"/>
    <g id="skier">
      <use xlink:href="#body"/>
      <use xlink:href="#arm"/>
      <use transform="translate(-30 70)" xlink:href="#circle"/>
      <use transform="scale(-1 1)" xlink:href="#arm"/>
      <use transform="translate(30 70)" xlink:href="#circle"/>
      <use xlink:href="#head"/>
      <use transform="translate(-10)" xlink:href="#eye"/>
      <use transform="translate(10)" xlink:href="#eye"/>
      <use transform="translate(-10 10)" xlink:href="#mouth"/>
      <use transform="translate(-23 -10)" xlink:href="#cap"/>
      <use transform="translate(-20 90)" xlink:href="#ski"/>
      <use transform="matrix(-1 0 0 1 20 90)" xlink:href="#ski"/>
    </g>


</defs>
















<g id="snow">
  <rect width="750" height="500" fill="rgb(233,231,231)" />
</g>


<g id="sky"> 
  <rect width="750" height="150" fill="url(#skyColor)" />
</g>


<linearGradient id="skyColor" x1="0%" y1="0%" x2="100%" y2="100%">
      <stop offset="0%" style="stop-color:rgb(0,93,215);stop-opacity:1" />
      <stop offset="100%" style="stop-color:rgb(96,161,245);stop-opacity:1" />
</linearGradient>



<g id="curves">
  <path d="M200 150 Q 150 200, 250 300 T 200 600 200 900 200 1200 200 1600 200 2000" fill="none" stroke="red" stroke-width="1"/>
  <path d="M600 150 Q 550 200, 650 300 T 600 600 600 900 600 1200 600 1600 600 2000" fill="none" stroke="red" stroke-width="1"/>
</g>

<use xlink:href="#skier" transform="matrix(0.5 0 0 0.5 100 0)">
    <animateMotion id="descente" dur="12s" path="M300 150 Q 250 200, 350 300 T 300 600 300 900 300 1200 300 1600 300 2000"/>  <!-- repeatCount="indefinite" -->
</use>
<use xlink:href="#skier" transform="matrix(0.5 0 0 0.5 50 0)">
    <animateMotion id="descente2" dur="11s" path="M300 150 Q 250 200, 350 300 T 300 600 300 900 300 1200 300 1600 300 2000"/>  <!-- repeatCount="indefinite" -->
</use>
<use xlink:href="#skier" transform="matrix(0.5 0 0 0.5 150 0)">
    <animateMotion id="descente3" dur="10s" path="M300 150 Q 250 200, 350 300 T 300 600 300 900 300 1200 300 1600 300 2000"/>  <!-- repeatCount="indefinite" -->
</use>

<use xlink:href="#skier" begin="descente.end" transform="matrix(0.5 0 0 0.5 400 2000)">
    <animateMotion id="descente" dur="12s" path="M300 150 Q 250 200, 350 300 T 300 600 300 900 300 1200 300 1600 300 2000"/>  <!-- repeatCount="indefinite" -->
</use>
<use xlink:href="#skier" begin="descente2.end" transform="matrix(0.5 0 0 0.5 350 2000)">
    <animateMotion id="descente" dur="11s" path="M300 150 Q 250 200, 350 300 T 300 600 300 900 300 1200 300 1600 300 2000"/>  <!-- repeatCount="indefinite" -->
</use>
<use xlink:href="#skier" begin="descente3.end" transform="matrix(0.5 0 0 0.5 450 2000)">
    <animateMotion id="descente" dur="10s" path="M300 150 Q 250 200, 350 300 T 300 600 300 900 300 1200 300 1600 300 2000"/>  <!-- repeatCount="indefinite" -->
</use>
    <animate attributeName="viewBox" dur="11s" fill="freeze" values="0 0 750 500; 0 1750 750 500"/>


<use xlink:href="#curves" x="0" y="0"/>

</svg>
