<svg height="500" width="750" xmlns="http://www.w3.org/2000/svg" xmlns:xlink="http://www.w3.org/1999/xlink">
  <defs>
    <g id="body">
      <path d="M0 0l20 30.3 2 15-2 5 5 5.1 5 25.1-60.1-.5 9.6-50-5.5 25 5.1-5-1.9-5 2.3-15" fill="#6a5acd"/>
      <path d="M-20.9 50l40.9.3" stroke="#000" stroke-width="1"/>
      <path d="M-30.1 80l60.1.5v5l-5 5-50.2-.5-5-5" fill="sienna"/>
    </g>
    <g id="Obody">
      <path d="M0 0l20 30.3 2 15-2 5 5 5.1 5 25.1-60.1-.5 9.6-50-5.5 25 5.1-5-1.9-5 2.3-15" fill="orange"/>
      <path d="M-20.9 50l40.9.3" stroke="#000" stroke-width="1"/>
      <path d="M-30.1 80l60.1.5v5l-5 5-50.2-.5-5-5" fill="sienna"/>
    </g>
    <g id="arm">
      <path d="M-20.5 30l-20.2 10-3 3-.3 13L-30 80l4-20-6.4-10 9.7-5" fill="purple"/>
      <path d="M-35.8 47.5l3.3 2.5" stroke="#000" stroke-width="1"/>
    </g>
    <g id="GoldArm">
      <path d="M-20.5 30l-20.2 10-3 3-.3 13L-30 80l4-20-6.4-10 9.7-5" fill="gold"/>
      <path d="M-35.8 47.5l3.3 2.5" stroke="#000" stroke-width="1"/>
    </g>
    <circle cx="0" cy="0" id="circle" r="5"/>
    <circle cx="0" cy="0" fill="wheat" id="head" r="25"/>
    <circle cx="0" cy="0" id="eye" r="3"/>
    <path d="M0 0q10 10.2 20 .3" fill="none" id="mouth" stroke="#000" stroke-width="2"/>
    <g id="cap">
      <circle cx="20" cy="-25" fill="red" r="6"/>
      <path d="M0 0q22.3-40 45.5.8" fill="red"/>
      <path d="M7.2-10q15-30 31.3 0" fill="#00f"/>
    </g>
    <path d="M0 0l-30.3 20h25L10 .2" fill="maroon" id="ski"/>
    <g id="skier">
      <use xlink:href="#body"/>
      <use xlink:href="#arm"/>
      <use transform="translate(-30 70)" xlink:href="#circle"/>
      <use transform="scale(-1 1)" xlink:href="#arm"/>
      <use transform="translate(30 70)" xlink:href="#circle"/>
      <use xlink:href="#head"/>
      <use transform="translate(-10)" xlink:href="#eye"/>
      <use transform="translate(10)" xlink:href="#eye"/>
      <use transform="translate(-10 10)" xlink:href="#mouth"/>
      <use transform="translate(-23 -10)" xlink:href="#cap"/>
      <use transform="translate(-20 90)" xlink:href="#ski"/>
      <use transform="matrix(-1 0 0 1 20 90)" xlink:href="#ski"/>
    </g>

    <g id="skier2">
      <use xlink:href="#Obody"/>
      <use xlink:href="#GoldArm"/>
      <use transform="translate(-30 70)" xlink:href="#circle"/>
      <use transform="scale(-1 1)" xlink:href="#GoldArm"/>
      <use transform="translate(30 70)" xlink:href="#circle"/>
      <use xlink:href="#head"/>
      <use transform="translate(-10)" xlink:href="#eye"/>
      <use transform="translate(10)" xlink:href="#eye"/>
      <use transform="translate(-10 10)" xlink:href="#mouth"/>
      <use transform="translate(-23 -10)" xlink:href="#cap"/>
      <use transform="translate(-20 90)" xlink:href="#ski"/>
      <use transform="matrix(-1 0 0 1 20 90)" xlink:href="#ski"/>
    </g>
  </defs>
  <use xlink:href="#skier">
    <animateMotion dur="4s" path="M100,400 L100,1000"/>  <!-- repeatCount="indefinite" -->
  <set transform="translate(100,1000)"/>
  </use>
  <use transform="translate(200 0)" xlink:href="#skier2">
    <animateMotion dur="3.5s" path="M100,400 V1000"/>  <!-- repeatCount="indefinite" -->
  </use>
  <animate attributeName="viewBox" dur="2s" fill="freeze" values="0 0 750 500; 0 0 750 1000"/>
</svg>
